# xmcd
#
# Track frame offsets:
#	183
#	15183
#	33958
#	47733
#	73183
#	91330
#	106553
#	122600
#	152403
#	171413
#	177665
#	191978
#	210940
#	218213
#	232975
#	256098
#	278645
#	290048
#	311283
#	330828
#
# Disc length: 4620 seconds
#
# Revision: 2
# Processed by: cddbd v1.4b41PL2 Copyright (c) Steve Scherf et al.
# Submitted via: CDmax 1.7.6
#
DISCID=09120a14
DTITLE=The Q-Tips Featuring Paul Young - Live At Last!
DYEAR=1900
DGENRE=
TTITLE0=You Are The Life Inside Of Me
TTITLE1=Sweet Talk
TTITLE2=Hi Fidelity
TTITLE3=Broken Man
TTITLE4=Empty Bed
TTITLE5=Get 'Em Up Joe
TTITLE6=Tracks Of My Tears
TTITLE7=A Man Can't Lose (What He Don't have)
TTITLE8=Your Gonna Love Me
TTITLE9=The Link
TTITLE10=Sysljfm (The Letter Song)
TTITLE11=Raise Your Hand
TTITLE12=Soul Man
TTITLE13=Said I Wasn't Gonna Tell Nobody
TTITLE14=Respect
TTITLE15=Having A Party
TTITLE16=Sweet Soul Music
TTITLE17=How Sweet It Is
TTITLE18=Land Of 1000 Dances
TTITLE19=Sweet Talk ['91 Remix]
EXTD=
EXTT0=
EXTT1=
EXTT2=
EXTT3=
EXTT4=
EXTT5=
EXTT6=
EXTT7=
EXTT8=
EXTT9=
EXTT10=
EXTT11=
EXTT12=
EXTT13=
EXTT14=
EXTT15=
EXTT16=
EXTT17=
EXTT18=
EXTT19=
PLAYORDER=
